<svg version="1.2" xmlns="http://www.w3.org/2000/svg" viewBox="0 0 89 44" width="89" height="44">
	<title>ella</title>
	<style>
		.s0 { fill: #232323 } 
	</style>
	<path id="ella" class="s0" aria-label="ella"  d="m16.8 17c4.2 0 7.6 2.7 7.7 6.9h-15.3c0.7-4.4 3.7-6.9 7.6-6.9zm15.3 15.9h-8.8c-1 2.2-3 3.9-6.4 3.9-4.1 0-7.3-2.7-7.7-7.4h23.4c0.2-1.1 0.3-2.1 0.3-3.2 0-9.5-6.6-15.9-15.9-15.9-9.5 0-16.1 6.5-16.1 16.6 0 10.1 6.8 16.6 16.1 16.6 8 0 13.3-4.7 15.1-10.6zm2.1 10.1h8.1v-42.9h-8.1zm11.4 0h8.2v-42.9h-8.2zm9.4-16.2c0 10 6.5 16.7 14.6 16.7 5.2 0 8.8-2.5 10.7-5.2v4.7h8.2v-32.2h-8.2v4.6c-1.9-2.7-5.4-5.1-10.6-5.1-8.2 0-14.7 6.4-14.7 16.5zm25.3 0.1c0 6.1-4 9.4-8.5 9.4-4.4 0-8.5-3.4-8.5-9.5 0-6.1 4.1-9.4 8.5-9.4 4.5 0 8.5 3.4 8.5 9.5z"/>
</svg>